<svg width="0" height="0" class="hidden">
  <symbol fill="none" xmlns="http://www.w3.org/2000/svg" viewBox="0 0 68 68" id="battery">
    <path d="M46.536 8H40V4H28V8H21.464C19.554 8 18 9.554 18 11.464V60.536C18 62.446 19.554 64 21.464 64H46.536C48.446 64 50 62.446 50 60.536V11.464C50 9.554 48.446 8 46.536 8ZM20 23H48V35H20V23ZM20 37H48V49H20V37ZM30 6H38V8H30V6ZM21.464 10H28H40H46.536C47.344 10 48 10.656 48 11.464V21H20V11.464C20 10.656 20.656 10 21.464 10ZM46.536 62H21.464C20.656 62 20 61.344 20 60.536V51H48V60.536C48 61.344 47.344 62 46.536 62Z" fill="black"></path>
  </symbol>
  <symbol fill="none" xmlns="http://www.w3.org/2000/svg" viewBox="0 0 41 41" id="charging1">
    <g clip-path="url(#clip0_40470_179)">
      <path d="M27.031 4.73074H13.969C12.527 4.73074 11.3539 5.90383 11.3539 7.34588V36.8079C11.3539 38.2499 12.527 39.423 13.969 39.423H27.031C28.4731 39.423 29.6462 38.2499 29.6462 36.8079V7.34597C29.6462 5.90383 28.4731 4.73074 27.031 4.73074ZM28.3846 36.8079C28.3846 37.5542 27.7772 38.1616 27.031 38.1616H13.969C13.2228 38.1616 12.6154 37.5542 12.6154 36.8079V7.34597C12.6154 6.59977 13.2228 5.99234 13.969 5.99234H27.031C27.7773 5.99234 28.3847 6.59977 28.3847 7.34597V36.8079H28.3846Z" fill="black"></path>
      <path d="M23.9693 1.57693H17.0308C16.6825 1.57693 16.4 1.8594 16.4 2.20773V5.36155C16.4 5.70989 16.6825 5.99235 17.0308 5.99235H23.9693C24.3176 5.99235 24.6001 5.70989 24.6001 5.36155V2.20773C24.6 1.8594 24.3176 1.57693 23.9693 1.57693ZM23.3385 4.73075H17.6615V2.83844H23.3385V4.73075Z" fill="black"></path>
      <path d="M25.1319 18.8996C25.0161 18.7175 24.8155 18.6075 24.6 18.6075H20.8154V12.9306C20.8154 12.6349 20.6099 12.379 20.3213 12.315C20.0301 12.2512 19.738 12.396 19.613 12.6639L15.1976 22.1255C15.1065 22.3207 15.1215 22.5494 15.2373 22.731C15.3531 22.9132 15.5537 23.0231 15.7692 23.0231H19.5538V28.7C19.5538 28.9957 19.7593 29.2516 20.0479 29.3157C20.0938 29.3259 20.1396 29.3308 20.1849 29.3308C20.4257 29.3308 20.6509 29.1922 20.7562 28.9667L25.1716 19.5052C25.2627 19.3099 25.2477 19.0812 25.1319 18.8996ZM19.5538 21.7615H16.7597L19.5538 15.7738V21.7615ZM20.8154 25.857V19.8692H23.6095L20.8154 25.857Z" fill="black"></path>
    </g>
    <defs>
      <clipPath id="clip0_40470_179">
        <rect width="37.8462" height="37.8462" fill="white" transform="translate(1.57692 1.57693)"></rect>
      </clipPath>
    </defs>
  </symbol>
  <symbol fill="none" xmlns="http://www.w3.org/2000/svg" viewBox="0 0 41 41" id="ear">
    <g clip-path="url(#clip0_40470_167)">
      <g clip-path="url(#clip1_40470_167)">
        <path d="M12.5923 0.788452C6.0838 0.788452 0.788452 6.52513 0.788452 13.6081C0.813499 15.2504 1.26379 16.8582 2.0954 18.2746C2.48837 18.9449 2.82485 19.6468 3.10135 20.373C3.28473 20.9068 3.10872 21.498 2.6633 21.8446C1.88835 22.4641 1.43928 23.404 1.44422 24.3962C1.44111 25.4864 1.9801 26.5069 2.88233 27.1189C3.20669 27.3393 3.40398 27.7033 3.41153 28.0954V33.577C3.41153 37.1929 6.05888 40.1347 9.31347 40.1347C12.5681 40.1347 15.2154 37.1929 15.2154 33.577C15.2054 30.8762 16.3799 28.3068 18.4287 26.5471C22.2694 23.3425 24.4615 18.5777 24.3962 13.576C24.3962 6.52513 19.1008 0.788452 12.5923 0.788452ZM17.5762 25.551C15.2357 27.5594 13.8934 30.4929 13.9039 33.577C13.9039 36.4696 11.8441 38.8231 9.31347 38.8231C6.78285 38.8231 4.72307 36.4696 4.72307 33.577V28.0954C4.71245 27.2832 4.31391 26.5251 3.65089 26.0559C3.09063 25.69 2.75372 25.0654 2.75576 24.3962C2.75126 23.793 3.02755 23.222 3.50334 22.8512C4.37644 22.1517 4.70981 20.9754 4.33355 19.9219C4.03153 19.1275 3.66367 18.3598 3.23382 17.6267C2.51115 16.3975 2.12043 15.0017 2.09999 13.576C2.09999 7.24845 6.80711 2.09999 12.5923 2.09999C18.3775 2.09999 23.0846 7.24845 23.0846 13.576C23.1447 18.1933 21.1213 22.592 17.5762 25.551Z" fill="black"></path>
        <path d="M12.5923 4.06729C8.9377 4.06729 5.82148 6.6589 4.61158 10.2814C4.60306 10.303 4.59715 10.324 4.5906 10.3469C4.24485 11.3989 4.06778 12.4989 4.06598 13.6061C4.06598 14.3931 4.06598 16.7997 5.56966 18.3034C5.82697 18.5519 6.23598 18.5484 6.48893 18.2954C6.74189 18.0425 6.74544 17.6335 6.49692 17.3762C5.95817 16.7773 5.61221 16.03 5.50408 15.2318C5.60966 15.2252 5.71393 15.2167 5.82344 15.2167C8.83343 15.2154 11.2808 17.9696 11.2808 21.3534C11.2808 21.6675 11.2657 21.9626 11.2414 22.2538C10.9149 22.6024 10.5676 22.9309 10.2014 23.2374C8.29139 24.8016 7.2328 27.1762 7.34614 29.6423C7.34614 30.0045 7.63974 30.2981 8.00191 30.2981C8.36409 30.2981 8.65768 30.0045 8.65768 29.6423C8.54487 27.563 9.43359 25.5552 11.0486 24.2408C13.3623 22.465 14.6711 19.6774 14.5596 16.763C14.5596 12.6579 11.4709 9.31345 7.67403 9.31345C7.23785 9.3146 6.80296 9.36075 6.37626 9.45117C7.51611 7.0315 9.91876 5.45745 12.5923 5.37883C16.5696 5.37883 19.8058 9.06885 19.8058 13.6048C19.8573 17.1782 18.3076 20.5872 15.5813 22.8977C15.4908 22.9758 15.3905 23.0597 15.2816 23.1509C13.9766 24.2355 11.2624 26.4953 10.6289 32.1933C10.5906 32.5523 10.8498 32.8748 11.2086 32.9146C11.2325 32.9181 11.2566 32.9203 11.2808 32.9212C11.6148 32.9209 11.8952 32.6695 11.9319 32.3376C12.5071 27.1635 14.8567 25.2087 16.1197 24.1588C16.2358 24.0617 16.3427 23.9725 16.4384 23.8899C19.4567 21.3331 21.1731 17.5601 21.1173 13.6048C21.1173 8.34554 17.2929 4.06729 12.5923 4.06729ZM7.67403 10.625C10.7476 10.625 13.2481 13.3792 13.2481 16.763C13.2778 18.0038 13.0314 19.2358 12.5267 20.3697C12.0867 16.7237 9.25247 13.9038 5.82476 13.9038C5.67327 13.9038 5.52769 13.915 5.38145 13.9255C5.38145 13.7996 5.38145 13.6901 5.38145 13.6048C5.38169 12.7278 5.50712 11.8554 5.75393 11.0139C6.36201 10.7587 7.0146 10.6266 7.67403 10.625Z" fill="black"></path>
        <path d="M33.577 15.8712C33.6273 13.8043 34.5038 11.8439 36.0105 10.4283C36.1936 10.2657 36.2708 10.0148 36.2109 9.77745C36.151 9.54012 35.9639 9.35591 35.7257 9.29971C35.4874 9.2435 35.2377 9.32466 35.078 9.51019C33.3267 11.1684 32.3135 13.4598 32.2654 15.8712C32.3135 18.2825 33.3267 20.5739 35.078 22.2321C35.2377 22.4177 35.4874 22.4988 35.7257 22.4426C35.9639 22.3864 36.151 22.2022 36.2109 21.9649C36.2708 21.7275 36.1936 21.4766 36.0105 21.3141C34.5038 19.8984 33.6273 17.938 33.577 15.8712Z" fill="black"></path>
        <path d="M37.9477 12.1025C37.8178 11.9868 37.6472 11.9275 37.4736 11.9375C37.2999 11.9476 37.1374 12.0263 37.0217 12.1562C35.0519 14.2412 35.0519 17.5012 37.0217 19.5861C37.1775 19.7611 37.4149 19.8397 37.6443 19.7923C37.8738 19.7449 38.0605 19.5786 38.1342 19.3562C38.2078 19.1338 38.1572 18.8889 38.0014 18.7139C36.474 17.1265 36.474 14.6158 38.0014 13.0284C38.1171 12.8985 38.1764 12.7279 38.1664 12.5543C38.1563 12.3806 38.0776 12.2181 37.9477 12.1025Z" fill="black"></path>
        <path d="M39.9661 14.1209C39.7238 13.8519 39.3093 13.8302 39.0402 14.0724C38.489 14.5066 38.1674 15.1695 38.1674 15.8712C38.1674 16.5728 38.489 17.2358 39.0402 17.67C39.2134 17.8322 39.4608 17.8883 39.687 17.8164C39.9133 17.7445 40.083 17.556 40.1308 17.3235C40.1786 17.091 40.0971 16.8508 39.9176 16.6955C39.6633 16.4935 39.5045 16.1949 39.4789 15.8712C39.5045 15.5475 39.6633 15.2489 39.9176 15.0469C40.1866 14.8046 40.2083 14.3901 39.9661 14.1209Z" fill="black"></path>
        <path d="M30.2981 15.8712C30.2981 12.9858 31.5906 10.1974 34.036 7.81567C34.2037 7.65167 34.2713 7.41064 34.2131 7.18337C34.1549 6.95609 33.98 6.77711 33.7541 6.71383C33.5282 6.65056 33.2857 6.71261 33.1179 6.87661C30.4161 9.51018 28.9866 12.6205 28.9866 15.8712C28.9866 19.1218 30.4161 22.2321 33.1179 24.8657C33.3772 25.1192 33.793 25.1145 34.0465 24.8552C34.3 24.5959 34.2953 24.1802 34.036 23.9267C31.5906 21.5449 30.2981 18.7566 30.2981 15.8712Z" fill="black"></path>
        <path d="M27.0193 15.8712C27.0193 12.2684 28.542 8.79802 31.4241 5.83787C31.5881 5.66989 31.65 5.42718 31.5866 5.20116C31.5231 4.97514 31.3439 4.80016 31.1164 4.74212C30.8889 4.68409 30.6477 4.75181 30.4837 4.9198C27.3596 8.13307 25.7077 11.9201 25.7077 15.8712C25.7077 19.8222 27.3596 23.6092 30.4837 26.8225C30.7373 27.0822 31.1533 27.0872 31.413 26.8337C31.6727 26.5801 31.6776 26.1641 31.4241 25.9044C28.542 22.9443 27.0193 19.474 27.0193 15.8712Z" fill="black"></path>
      </g>
    </g>
    <defs>
      <clipPath id="clip0_40470_167">
        <rect width="41" height="41" fill="white"></rect>
      </clipPath>
      <clipPath id="clip1_40470_167">
        <rect width="39.4231" height="39.3462" fill="white" transform="translate(0.788452 0.788452)"></rect>
      </clipPath>
    </defs>
  </symbol>
  <symbol fill="none" xmlns="http://www.w3.org/2000/svg" viewBox="0 0 14 15" id="phone">
    <path d="M13.7455 13.0923C13.4909 13.5935 12.9818 13.8441 12.4727 14.0947C11.8364 14.4706 11.3273 14.5959 10.6909 14.5959C9.8 14.5959 8.90909 14.22 8.14545 13.9694C7.50909 13.7188 7 13.4682 6.36364 13.2176C4.58182 12.09 2.54545 10.0853 1.52727 8.45643C1.14545 7.82996 0.890909 7.32878 0.636364 6.70231C0.381818 5.82525 0 5.07349 0 4.07113C0 3.44466 0.127273 2.81819 0.509091 2.19172C0.763636 1.69054 1.01818 1.18936 1.52727 0.938771C1.90909 0.938771 2.54545 0.813477 2.92727 0.813477C3.05455 0.813477 3.05455 0.813477 3.18182 0.813477C3.43636 0.938771 3.56364 1.31465 3.69091 1.56524C3.94545 2.19172 4.32727 2.69289 4.58182 3.31936C4.83636 3.56995 5.09091 3.82054 5.09091 4.07113C5.09091 4.6976 3.30909 5.57466 3.30909 6.07584C3.30909 6.32643 3.56364 6.70231 3.69091 6.9529C4.70909 8.70702 5.98182 9.95997 7.76364 10.9623C8.01818 11.0876 8.4 11.3382 8.65455 11.3382C9.16364 11.3382 10.0545 9.58408 10.6909 9.58408C10.9455 9.58408 11.2 9.83467 11.4545 10.0853C11.9636 10.4611 12.6 10.7117 13.1091 11.0876C13.3636 11.2129 13.7455 11.3382 13.8727 11.5888C13.8727 11.7141 13.8727 11.7141 13.8727 11.8394C14 12.09 13.8727 12.7164 13.7455 13.0923Z" fill="#292929"></path>
  </symbol>
  <symbol fill="none" xmlns="http://www.w3.org/2000/svg" viewBox="0 0 39 39" id="plug1">
    <g clip-path="url(#clip0_40470_192)">
      <path d="M29.5923 8.77691H27.7V2.46924C27.7 1.39691 26.88 0.576935 25.8077 0.576935C24.7353 0.576935 23.9154 1.39691 23.9154 2.46924V8.77691H15.0846V2.46924C15.0846 1.39691 14.2647 0.576935 13.1923 0.576935C12.12 0.576935 11.3 1.39691 11.3 2.46924V8.77691H9.40772C9.02925 8.77691 8.77697 9.02919 8.77697 9.40765V14.2015C8.77697 17.3553 9.97541 20.383 12.1201 22.7169C14.0124 24.8615 15.0847 27.6369 15.0847 30.4753V32.1153C15.0847 33.8815 16.4724 35.2692 18.2386 35.2692H18.8693V37.7923C18.8693 38.1707 19.1216 38.423 19.5001 38.423C19.8785 38.423 20.1308 38.1707 20.1308 37.7923V35.2692H20.7616C22.5277 35.2692 23.9154 33.8815 23.9154 32.1153V30.5384C23.9154 27.6369 24.9246 24.9246 26.8801 22.78C29.0247 20.4462 30.2232 17.3553 30.2232 14.2016V9.40773C30.2231 9.02927 29.9707 8.77691 29.5923 8.77691ZM25.1769 2.46924C25.1769 2.09078 25.4292 1.8385 25.8077 1.8385C26.1861 1.8385 26.4384 2.09078 26.4384 2.46924V8.77691H25.1769V2.46924ZM12.5615 2.46924C12.5615 2.15383 12.8138 1.8385 13.1923 1.8385C13.5707 1.8385 13.823 2.09078 13.823 2.46924V8.77691H12.5614V2.46924H12.5615ZM28.9615 14.1385C28.9615 17.04 27.9523 19.7524 25.9969 21.897C23.8523 24.2308 22.6539 27.3215 22.6539 30.4754V32.1154C22.6539 33.1878 21.8339 34.0077 20.7616 34.0077H18.2385C17.1662 34.0077 16.3462 33.1878 16.3462 32.1154V30.5385C16.3462 27.3847 15.1478 24.2939 13.0031 21.9601C11.1108 19.8154 10.0385 17.04 10.0385 14.2016V10.0385H11.9308H14.4538H24.5461H27.0692H28.9615V14.1385Z" fill="black"></path>
      <path d="M22.0231 16.977H18.4907L21.8338 13.6339C22.0861 13.3816 22.0861 13.0031 21.8338 12.7508C21.5815 12.4984 21.2031 12.4985 20.9507 12.7508L16.5354 17.1661C16.3461 17.3554 16.2831 17.6076 16.4092 17.86C16.4722 18.1123 16.7246 18.2385 16.9769 18.2385H20.5092L17.1661 21.5816C16.9138 21.8338 16.9138 22.2123 17.1661 22.4647C17.2923 22.5908 17.4184 22.6539 17.6076 22.6539C17.7968 22.6539 17.923 22.5908 18.0491 22.4647L22.4645 18.0493C22.6537 17.8601 22.7168 17.6078 22.5907 17.3554C22.5277 17.1031 22.2754 16.977 22.0231 16.977Z" fill="black"></path>
    </g>
    <defs>
      <clipPath id="clip0_40470_192">
        <rect width="37.8462" height="37.8462" fill="white" transform="translate(0.57692 0.576935)"></rect>
      </clipPath>
    </defs>
  </symbol>
  <symbol fill="none" xmlns="http://www.w3.org/2000/svg" viewBox="0 0 53 53" id="sound1">
    <g clip-path="url(#clip0_40470_303)">
      <path d="M28.404 3.41299C27.428 2.86099 26.273 2.87899 25.314 3.45699C25.268 3.48399 25.224 3.51599 25.184 3.54999L11.634 15.013H1C0.447 15.013 0 15.46 0 16.013V35.013C0 35.279 0.105 35.533 0.293 35.72C0.481 35.907 0.734 36.013 1 36.013L11.61 36.008L25.153 48.448C25.203 48.494 25.257 48.534 25.314 48.568C25.806 48.865 26.351 49.014 26.896 49.014C27.413 49.013 27.929 48.88 28.404 48.612C29.403 48.048 30 47.018 30 45.857V6.16899C30 5.00799 29.403 3.97799 28.404 3.41299ZM28 45.857C28 46.288 27.783 46.667 27.421 46.872C27.266 46.959 26.873 47.127 26.421 46.898L13 34.569V30.013C13 29.46 12.553 29.013 12 29.013C11.447 29.013 11 29.46 11 30.013V34.009L2 34.013V17.013H11V21.013C11 21.566 11.447 22.013 12 22.013C12.553 22.013 13 21.566 13 21.013V16.477L26.405 5.13699C26.866 4.89499 27.265 5.06699 27.421 5.15499C27.783 5.35999 28 5.73899 28 6.16899V45.857Z" fill="black"></path>
      <path d="M38.797 7.06596C38.274 6.88896 37.706 7.16896 37.528 7.69196C37.351 8.21396 37.631 8.78296 38.154 8.96096C45.255 11.372 50.026 18.024 50.026 25.514C50.026 32.997 45.264 39.65 38.177 42.068C37.655 42.246 37.375 42.814 37.554 43.338C37.696 43.753 38.084 44.015 38.5 44.015C38.607 44.015 38.716 43.998 38.823 43.961C46.719 41.268 52.025 33.855 52.025 25.515C52.026 17.166 46.71 9.75296 38.797 7.06596Z" fill="black"></path>
      <path d="M43.026 25.513C43.026 19.541 39.017 14.211 33.277 12.551C32.744 12.4 32.193 12.703 32.039 13.235C31.886 13.765 32.191 14.32 32.723 14.473C37.612 15.886 41.027 20.426 41.027 25.513C41.027 30.6 37.612 35.14 32.723 36.553C32.192 36.706 31.886 37.261 32.039 37.791C32.166 38.229 32.565 38.514 33 38.514C33.092 38.514 33.185 38.501 33.277 38.475C39.018 36.815 43.026 31.485 43.026 25.513Z" fill="black"></path>
    </g>
    <defs>
      <clipPath id="clip0_40470_303">
        <rect width="52.026" height="52.026" fill="white"></rect>
      </clipPath>
    </defs>
  </symbol>
  <symbol fill="none" xmlns="http://www.w3.org/2000/svg" viewBox="0 0 60 60" id="time1">
    <path d="M31.634 37.989C32.675 37.908 33.624 37.377 34.24 36.53L43.603 23.586C43.89 23.189 43.847 22.641 43.499 22.293C43.151 21.946 42.603 21.903 42.206 22.189L29.26 31.555C28.416 32.169 27.885 33.118 27.804 34.159C27.723 35.2 28.1 36.219 28.837 36.956C29.508 37.628 30.413 38 31.354 38C31.447 38 31.54 37.996 31.634 37.989ZM29.798 34.315C29.833 33.858 30.067 33.441 30.435 33.173L38.332 27.46L32.621 35.355C32.351 35.726 31.934 35.959 31.477 35.995C31.022 36.025 30.575 35.867 30.25 35.542C29.928 35.219 29.762 34.771 29.798 34.315Z" fill="black"></path>
    <path d="M54.034 19.564C54.024 19.543 54.024 19.521 54.013 19.5C54.001 19.48 53.982 19.469 53.969 19.45C52.958 17.716 51.762 16.103 50.404 14.641L52.552 12.494L53.966 13.908L58.208 9.665L53.966 5.423L49.723 9.665L51.138 11.08L48.99 13.227C47.528 11.869 45.916 10.672 44.181 9.661C44.162 9.648 44.151 9.629 44.131 9.617C44.11 9.605 44.088 9.606 44.067 9.595C40.974 7.813 37.499 6.626 33.794 6.191V5H35.294C36.673 5 37.794 3.879 37.794 2.5C37.794 1.121 36.672 0 35.293 0H26.293C24.914 0 23.793 1.121 23.793 2.5C23.793 3.879 24.914 5 26.293 5H27.793V6.156C26.713 6.271 25.635 6.447 24.569 6.691C24.031 6.814 23.694 7.351 23.818 7.889C23.941 8.427 24.478 8.765 25.016 8.64C25.936 8.429 26.865 8.27 27.796 8.163L28.869 8.08C29.197 8.055 29.499 8.037 29.793 8.023V10C29.793 10.553 30.24 11 30.793 11C31.346 11 31.793 10.553 31.793 10V8.03C35.554 8.203 39.098 9.213 42.249 10.875L41.263 12.582C40.987 13.061 41.151 13.672 41.629 13.948C41.786 14.039 41.958 14.082 42.128 14.082C42.474 14.082 42.81 13.903 42.995 13.582L43.978 11.879C47.107 13.864 49.765 16.522 51.75 19.651L50.047 20.634C49.57 20.91 49.406 21.521 49.683 22C49.869 22.321 50.204 22.5 50.55 22.5C50.72 22.5 50.892 22.457 51.049 22.366L52.756 21.38C54.441 24.576 55.454 28.178 55.605 31.999H53.63C53.077 31.999 52.63 32.446 52.63 32.999C52.63 33.552 53.077 33.999 53.63 33.999H55.605C55.454 37.82 54.441 41.422 52.756 44.618L51.049 43.632C50.571 43.356 49.959 43.518 49.683 43.998C49.407 44.477 49.571 45.088 50.049 45.364L51.752 46.347C49.767 49.476 47.109 52.134 43.98 54.119L42.997 52.416C42.72 51.936 42.107 51.773 41.631 52.05C41.152 52.326 40.988 52.938 41.265 53.416L42.251 55.123C39.1 56.785 35.556 57.795 31.795 57.968V56C31.795 55.447 31.348 55 30.795 55C30.242 55 29.795 55.447 29.795 56V57.976C28.198 57.921 26.596 57.721 25.019 57.359C24.481 57.23 23.944 57.572 23.821 58.11C23.697 58.648 24.034 59.185 24.572 59.308C26.568 59.768 28.607 60 30.63 60C30.679 60 30.726 59.997 30.775 59.996C30.782 59.996 30.787 60 30.793 60C30.801 60 30.808 59.995 30.816 59.995C35.623 59.962 40.133 58.664 44.035 56.422C44.066 56.408 44.099 56.401 44.129 56.383C44.149 56.371 44.16 56.352 44.179 56.339C48.218 53.985 51.593 50.614 53.952 46.578C53.971 46.551 53.995 46.53 54.012 46.5C54.024 46.479 54.023 46.457 54.033 46.436C56.317 42.476 57.63 37.89 57.63 33C57.63 28.11 56.317 23.524 54.034 19.564ZM53.965 8.251L55.379 9.665L53.965 11.08L52.55 9.665L53.965 8.251ZM29.793 6.021V3H26.293C26.018 3 25.793 2.775 25.793 2.5C25.793 2.225 26.018 2 26.293 2H35.293C35.568 2 35.793 2.225 35.793 2.5C35.793 2.775 35.568 3 35.293 3H31.793V6.021C31.445 6.007 31.113 6 30.793 6C30.765 6 30.733 6.002 30.705 6.002C30.68 6.002 30.655 6 30.63 6C30.466 6 30.302 6.011 30.138 6.014C30.022 6.017 29.913 6.016 29.793 6.021Z" fill="black"></path>
    <path d="M21.793 14H16.793C16.24 14 15.793 14.447 15.793 15C15.793 15.553 16.24 16 16.793 16H21.793C22.346 16 22.793 15.553 22.793 15C22.793 14.447 22.346 14 21.793 14Z" fill="black"></path>
    <path d="M21.793 21H11.793C11.24 21 10.793 21.447 10.793 22C10.793 22.553 11.24 23 11.793 23H21.793C22.346 23 22.793 22.553 22.793 22C22.793 21.447 22.346 21 21.793 21Z" fill="black"></path>
    <path d="M21.793 28H6.793C6.24 28 5.793 28.447 5.793 29C5.793 29.553 6.24 30 6.793 30H21.793C22.346 30 22.793 29.553 22.793 29C22.793 28.447 22.346 28 21.793 28Z" fill="black"></path>
    <path d="M21.793 35H2.793C2.24 35 1.793 35.447 1.793 36C1.793 36.553 2.24 37 2.793 37H21.793C22.346 37 22.793 36.553 22.793 36C22.793 35.447 22.346 35 21.793 35Z" fill="black"></path>
    <path d="M21.793 42H8.793C8.24 42 7.793 42.447 7.793 43C7.793 43.553 8.24 44 8.793 44H21.793C22.346 44 22.793 43.553 22.793 43C22.793 42.447 22.346 42 21.793 42Z" fill="black"></path>
    <path d="M21.793 49H14.793C14.24 49 13.793 49.447 13.793 50C13.793 50.553 14.24 51 14.793 51H21.793C22.346 51 22.793 50.553 22.793 50C22.793 49.447 22.346 49 21.793 49Z" fill="black"></path>
  </symbol>
  <symbol fill="currentColor" xmlns="http://www.w3.org/2000/svg" viewBox="0 0 40 40" id="Vector">
    <path d="M20 26C23.3 26 26 23.3 26 20C26 16.7 23.3 14 20 14C16.7 14 14 16.7 14 20C14 23.3 16.7 26 20 26ZM20 0C18 0 15.9 0.3 14 0.9V12C18.4 8.7 24.7 9.6 28 14C31.3 18.4 30.4 24.7 26 28C21.6 31.3 15.3 30.4 12 26C10.7 24.3 9.99999 22.2 9.99999 20V2.7C0.399989 8.2 -2.80001 20.4 2.69999 30C8.19999 39.6 20.4 42.8 30 37.3C39.6 31.8 42.8 19.6 37.3 10C33.8 3.8 27.2 0 20 0Z" fill="#black"></path>
  </symbol>
  <symbol fill="currentColor" xmlns="http://www.w3.org/2000/svg" viewBox="0 0 42 42" id="gear">
    <g clip-path="url(#clip0_24_1166)">
      <path d="M21 10.1111C14.9956 10.1111 10.1111 14.9955 10.1111 21C10.1111 27.0044 14.9956 31.8889 21 31.8889C27.0044 31.8889 31.8889 27.0044 31.8889 21C31.8889 14.9955 27.0044 10.1111 21 10.1111ZM21 30.3333C15.8534 30.3333 11.6667 26.1465 11.6667 21C11.6667 15.8534 15.8534 11.6666 21 11.6666C26.1466 11.6666 30.3333 15.8534 30.3333 21C30.3333 26.1465 26.1466 30.3333 21 30.3333Z" fill="currentColor"></path>
      <path d="M39.8378 16.3333H38.2682C37.8677 14.8462 37.2789 13.4229 36.5104 12.089L37.6196 10.9799C38.0279 10.5716 38.2527 10.0279 38.2527 9.45078C38.2527 8.87289 38.0279 8.33 37.6196 7.92089L34.0783 4.37967C33.2617 3.56378 31.8376 3.56222 31.0193 4.37967L29.9102 5.48878C28.5756 4.72111 27.153 4.13233 25.6667 3.73178V2.16222C25.6667 0.969889 24.6968 0 23.5044 0H18.4956C17.3032 0 16.3333 0.969889 16.3333 2.16222V3.73178C14.847 4.13233 13.4244 4.72111 12.089 5.48956L10.9799 4.38044C10.1624 3.56222 8.73755 3.56378 7.92089 4.38044L4.37967 7.92167C3.97133 8.33 3.74656 8.87367 3.74656 9.45156C3.74656 10.0287 3.97133 10.5716 4.37967 10.9807L5.48878 12.0898C4.72111 13.4229 4.13156 14.8462 3.73178 16.3333H2.16222C0.969889 16.3333 0 17.3032 0 18.4956V23.5037C0 24.6968 0.969889 25.6667 2.16222 25.6667H3.73178C4.13233 27.153 4.72111 28.5756 5.48956 29.911L4.38044 31.0201C3.97211 31.4284 3.74733 31.9721 3.74733 32.5492C3.74733 33.1271 3.97211 33.67 4.38044 34.0791L7.92167 37.6203C8.73833 38.4378 10.1632 38.4386 10.9807 37.6203L12.0898 36.5112C13.4252 37.2789 14.8478 37.8684 16.3341 38.269V39.8386C16.3341 41.0309 17.304 42.0008 18.4963 42.0008H23.5044C24.6968 42.0008 25.6667 41.0309 25.6667 39.8386V38.269C27.153 37.8684 28.5756 37.2797 29.911 36.5112L31.0201 37.6203C31.8383 38.4386 33.2617 38.437 34.0791 37.6203L37.6203 34.0791C38.0287 33.6708 38.2534 33.1271 38.2534 32.5492C38.2534 31.9721 38.0287 31.4292 37.6203 31.0201L36.5112 29.911C37.2789 28.5756 37.8684 27.153 38.269 25.6667H39.8386C41.0309 25.6667 42.0008 24.6968 42.0008 23.5044V18.4956C42 17.3032 41.0301 16.3333 39.8378 16.3333ZM40.4444 23.5044C40.4444 23.8389 40.1722 24.1111 39.8378 24.1111H37.044L36.904 24.7123C36.4988 26.4522 35.8159 28.1034 34.8717 29.6209L34.545 30.1451L36.5198 32.1199C36.757 32.3571 36.757 32.7421 36.5198 32.9786L32.9786 36.5198C32.7421 36.7562 32.3571 36.7578 32.1199 36.5198L30.1451 34.545L29.6209 34.8717C28.1042 35.8159 26.453 36.4996 24.7123 36.904L24.1111 37.044V39.8378C24.1111 40.1722 23.8389 40.4444 23.5044 40.4444H18.4956C18.1611 40.4444 17.8889 40.1722 17.8889 39.8378V37.044L17.2877 36.904C15.5478 36.4988 13.8966 35.8159 12.3791 34.8717L11.8549 34.545L9.88011 36.5198C9.64211 36.7578 9.25711 36.7562 9.02144 36.5198L5.48022 32.9786C5.243 32.7413 5.243 32.3563 5.48022 32.1199L7.455 30.1451L7.12833 29.6209C6.18411 28.1042 5.50044 26.453 5.096 24.7123L4.956 24.1111H2.16222C1.82778 24.1111 1.55556 23.8389 1.55556 23.5044V18.4956C1.55556 18.1611 1.82778 17.8889 2.16222 17.8889H4.956L5.096 17.2877C5.50122 15.547 6.18411 13.8958 7.12833 12.3791L7.455 11.8549L5.48022 9.88011C5.243 9.64289 5.243 9.25789 5.48022 9.02144L9.02144 5.48022C9.25789 5.24378 9.64289 5.24222 9.88011 5.48022L11.8549 7.455L12.3791 7.12833C13.8958 6.18411 15.547 5.50044 17.2877 5.096L17.8889 4.956V2.16222C17.8889 1.82778 18.1611 1.55556 18.4956 1.55556H23.5037C23.8389 1.55556 24.1111 1.82778 24.1111 2.16222V4.956L24.7123 5.096C26.4522 5.50122 28.1034 6.18411 29.6209 7.12833L30.1451 7.455L32.1199 5.48022C32.3579 5.24222 32.7429 5.24378 32.9786 5.48022L36.5198 9.02144C36.757 9.25867 36.757 9.64367 36.5198 9.88011L34.545 11.8549L34.8717 12.3791C35.8159 13.895 36.4996 15.5462 36.904 17.2877L37.044 17.8889H39.8378C40.1722 17.8889 40.4444 18.1611 40.4444 18.4956V23.5044Z" fill="currentColor"></path>
      <path d="M21 13.2222C16.7113 13.2222 13.2222 16.7113 13.2222 20.9999C13.2222 25.2886 16.7113 28.7777 21 28.7777C25.2887 28.7777 28.7778 25.2886 28.7778 20.9999C28.7778 16.7113 25.2887 13.2222 21 13.2222ZM21 27.2222C17.5692 27.2222 14.7778 24.4307 14.7778 20.9999C14.7778 17.5692 17.5692 14.7777 21 14.7777C24.4308 14.7777 27.2222 17.5692 27.2222 20.9999C27.2222 24.4307 24.4308 27.2222 21 27.2222Z" fill="currentColor"></path>
    </g>
    <defs>
      <clipPath id="clip0_24_1166">
        <rect width="42" height="42" fill="currentColor"></rect>
      </clipPath>
    </defs>
  </symbol>
  <symbol fill="none" xmlns="http://www.w3.org/2000/svg" viewBox="0 0 24 40" id="left">
    <path d="M14 28L1.91422 15.9142C1.13317 15.1332 1.13317 13.8668 1.91421 13.0858L14 1" stroke="black" stroke-width="2" stroke-linecap="round"></path>
  </symbol>
  <symbol fill="none" xmlns="http://www.w3.org/2000/svg" viewBox="0 0 24 40" id="right">
    <path d="M1 1L13.0858 13.0858C13.8668 13.8668 13.8668 15.1332 13.0858 15.9142L1 28" stroke="black" stroke-width="2" stroke-linecap="round"></path>
  </symbol>
    <symbol fill="none" xmlns="http://www.w3.org/2000/svg" viewBox="0 0 24 24" id="bluetooth">
    <g clip-path="url(#clip0_40986_234)">
      <path d="M18.2054 17.5212L13.1636 12L18.2054 6.47941C18.3637 6.30555 18.4445 6.0739 18.4276 5.83901C18.4107 5.60388 18.2984 5.38591 18.1163 5.23643L11.9874 0.195911C11.7305 -0.0154485 11.3753 -0.0598392 11.0746 0.0825203C10.7739 0.22427 10.5823 0.526708 10.5823 0.859239V9.1736L7.06391 5.32043C6.74426 4.97018 6.20042 4.94552 5.85017 5.26544C5.49992 5.58537 5.47526 6.12865 5.79518 6.47918L10.5823 11.7217V12.2784L5.79523 17.5212C5.47503 17.8711 5.49968 18.4147 5.85022 18.7349C6.20075 19.0551 6.74408 19.0304 7.06395 18.6796L10.5821 14.827V23.1408C10.5821 23.473 10.774 23.7757 11.0744 23.9178C11.1913 23.9728 11.3167 24 11.4413 24C11.6369 24 11.8305 23.9336 11.9874 23.8047L18.1163 18.7641C18.2984 18.6143 18.4107 18.3964 18.4276 18.1615C18.4445 17.9267 18.3643 17.695 18.2054 17.5212ZM12.3007 2.67837L16.326 5.98854L12.3007 10.3968V2.67837ZM12.3007 21.3216V13.6035L16.326 18.0115L12.3007 21.3216Z" fill="currentColor"></path>
    </g>
    <defs>
      <clipPath id="clip0_40986_234">
        <rect width="24" height="24" fill="white"></rect>
      </clipPath>
    </defs>
  </symbol>
  <symbol fill="none" xmlns="http://www.w3.org/2000/svg" viewBox="0 0 24 24" id="charger">
    <g clip-path="url(#clip0_40986_228)">
      <path d="M22.08 7.22744V5.12612C22.08 4.73628 21.7639 4.42024 21.3741 4.42024H18.096C17.7061 4.42024 17.3901 4.73628 17.3901 5.12612V7.22744C17.0301 7.25962 16.7478 7.56174 16.7478 7.93012V11.7258C16.7478 12.5907 17.4515 13.2943 18.3164 13.2943H19.0292V20.8141C19.0292 21.7924 18.2331 22.5882 17.2546 22.5882H9.53833C8.56007 22.5882 7.76421 21.7924 7.76421 20.8141V19.2941H9.26539C9.65523 19.2941 9.97127 18.9781 9.97127 18.5882V16.298H10.7211C11.8887 16.298 12.8387 15.348 12.8387 14.1804V7.77821C12.8387 6.82607 12.2069 6.01887 11.3407 5.75327V3.33271C11.3407 2.94287 11.0246 2.62682 10.6348 2.62682H9.64704V0.705882C9.64704 0.316047 9.33099 0 8.94115 0C8.55132 0 8.23527 0.316047 8.23527 0.705882V2.62682H5.88139V0.705882C5.88139 0.316047 5.56534 0 5.17551 0C4.78567 0 4.46963 0.316047 4.46963 0.705882V2.62682H3.48186C3.09202 2.62682 2.77598 2.94287 2.77598 3.33271V5.75327C1.90967 6.01887 1.27795 6.82602 1.27795 7.77821V14.1804C1.27795 15.348 2.22793 16.298 3.3956 16.298H4.14539V18.5882C4.14539 18.9781 4.46144 19.2941 4.85127 19.2941H6.35245V20.8141C6.35245 22.5708 7.78163 24 9.53833 24H17.2546C19.0115 24 20.4409 22.5708 20.4409 20.8141V13.2943H21.1535C22.0184 13.2943 22.722 12.5907 22.722 11.7258V7.93012C22.722 7.56179 22.4398 7.25976 22.08 7.22744ZM9.92892 4.03859V5.66056H4.18774V4.03859H9.92892ZM2.68967 14.1804V7.77821C2.68967 7.38899 3.00633 7.07233 3.39555 7.07233H10.7211C11.1103 7.07233 11.4269 7.38899 11.4269 7.77821V14.1804C11.4269 14.5696 11.1103 14.8863 10.7211 14.8863C10.4252 14.8863 3.73245 14.8863 3.39555 14.8863C3.00633 14.8863 2.68967 14.5696 2.68967 14.1804ZM5.55715 16.298H8.55951V17.8824H5.55715V16.298ZM20.6682 5.832V7.22424H18.8019V5.832H20.6682ZM21.3103 11.7258C21.3103 11.8122 21.2399 11.8825 21.1535 11.8825C21.0671 11.8825 19.1153 11.8825 18.3164 11.8825C18.2299 11.8825 18.1596 11.8122 18.1596 11.7258V8.636H21.3103V11.7258Z" fill="currentColor"></path>
      <path d="M6.16377 11.6851H6.87986L6.56777 12.4089C6.41341 12.7669 6.5785 13.1823 6.93643 13.3366C7.29497 13.4911 7.70994 13.3255 7.8641 12.9679L8.60109 11.2588C8.80203 10.7928 8.45925 10.2734 7.9529 10.2734H7.2368L7.5489 9.54964C7.70325 9.19166 7.53817 8.77628 7.18024 8.62192C6.82217 8.46762 6.40687 8.6327 6.25257 8.99063L5.51558 10.6998C5.31464 11.1657 5.65741 11.6851 6.16377 11.6851Z" fill="currentColor"></path>
    </g>
    <defs>
      <clipPath id="clip0_40986_228">
        <rect width="24" height="24" fill="white"></rect>
      </clipPath>
    </defs>
  </symbol>
  <symbol fill="none" xmlns="http://www.w3.org/2000/svg" viewBox="0 0 24 24" id="kg">
    <g clip-path="url(#clip0_40986_241)">
      <path d="M20.3373 6.39972H14.9742C15.5392 5.7226 15.88 4.85193 15.88 3.90308C15.88 1.75085 14.1292 0 11.9771 0C9.82489 0 8.07404 1.75085 8.07404 3.90308C8.07404 4.85193 8.41479 5.7226 8.97986 6.39972H3.6167L0.28125 24H23.6728L20.3373 6.39972ZM11.9771 1.40625C13.3537 1.40625 14.4738 2.52631 14.4738 3.90308C14.4738 5.27966 13.3537 6.39972 11.9771 6.39972C10.6003 6.39972 9.48029 5.27966 9.48029 3.90308C9.48029 2.52631 10.6003 1.40625 11.9771 1.40625ZM4.78143 7.80597H19.1726L21.975 22.5938H1.979L4.78143 7.80597Z" fill="black"></path>
      <path d="M12.0055 12.4026H10.4094L8.17786 14.631V12.4026H7.03088V18.0225H8.17786V16.1017L8.75629 15.5377L10.5044 18.0225H11.985L9.57532 14.7496L12.0055 12.4026Z" fill="black"></path>
      <path d="M14.2747 16.0007H15.7903V16.617C15.6685 16.7058 15.5026 16.793 15.2955 16.8766C15.0436 16.9786 14.7817 17.0303 14.5177 17.0303C14.2154 17.0303 13.9261 16.9627 13.6575 16.8294C13.3986 16.701 13.2063 16.5092 13.0701 16.2426C12.9294 15.9677 12.8582 15.6152 12.8582 15.195C12.8582 14.8546 12.9186 14.5355 13.0371 14.2474C13.1041 14.0872 13.1995 13.938 13.3207 13.8034C13.4363 13.6752 13.5936 13.569 13.7878 13.4879C13.9858 13.4053 14.2277 13.3634 14.5071 13.3634C14.7347 13.3634 14.9432 13.4028 15.1269 13.4804C15.3016 13.5542 15.4356 13.6511 15.5251 13.7681C15.6222 13.8948 15.7062 14.0775 15.7751 14.3113L15.8395 14.5302L16.8955 14.2405L16.8386 14.0191C16.7417 13.6419 16.5959 13.329 16.4052 13.0886C16.2094 12.8419 15.939 12.6482 15.601 12.5127C15.2736 12.3814 14.9044 12.3149 14.5036 12.3149C13.9539 12.3149 13.4592 12.4307 13.0331 12.6588C12.5969 12.8925 12.2585 13.2534 12.028 13.7314C11.8037 14.1962 11.6902 14.7026 11.6902 15.2373C11.6902 15.7786 11.8052 16.277 12.0324 16.7184C12.2648 17.1703 12.6132 17.5203 13.0684 17.7587C13.5139 17.9921 14.0145 18.1106 14.5563 18.1106C14.9579 18.1106 15.3547 18.0375 15.7357 17.8932C16.1131 17.7506 16.4832 17.5356 16.8356 17.2546L16.9233 17.1848V14.9271L14.2747 14.9313V16.0007Z" fill="currentColor"></path>
    </g>
    <defs>
      <clipPath id="clip0_40986_241">
        <rect width="24" height="24" fill="white"></rect>
      </clipPath>
    </defs>
  </symbol>
  <symbol fill="none" xmlns="http://www.w3.org/2000/svg" viewBox="0 0 24 24" id="patent">
    <path d="M24 1.78125H0V19.2266H14.7643V22.2543L17.3884 20.9725L20.0125 22.2543V19.2266H24V1.78125ZM17.3884 16.413C16.0701 16.413 14.9978 15.3406 14.9978 14.0224C14.9978 12.7042 16.0701 11.6318 17.3884 11.6318C18.7066 11.6318 19.7791 12.7042 19.7791 14.0224C19.7791 15.3406 18.7066 16.413 17.3884 16.413ZM17.3884 19.4075L16.1706 20.0023V17.6177C16.5531 17.7477 16.9623 17.8193 17.3884 17.8193C17.8143 17.8193 18.2236 17.7477 18.6063 17.6177V20.0023L17.3884 19.4075ZM22.5938 17.8204H20.0125V16.7626C20.7343 16.071 21.1853 15.0987 21.1853 14.0224C21.1853 11.9288 19.4821 10.2255 17.3884 10.2255C15.2948 10.2255 13.5916 11.9288 13.5916 14.0224C13.5916 15.0987 14.0424 16.0712 14.7643 16.7626V17.8204H1.40625V3.1875H22.5938V17.8204Z" fill="currentColor"></path>
    <path d="M2.81415 7.41064H21.1859V8.81689H2.81415V7.41064Z" fill="black"></path>
    <path d="M4.92517 4.59595H19.0748V6.0022H4.92517V4.59595Z" fill="black"></path>
    <path d="M2.81415 15.0056H9.65442V16.4119H2.81415V15.0056Z" fill="black"></path>
    <path d="M2.81415 12.1908H9.65442V13.597H2.81415V12.1908Z" fill="black"></path>
  </symbol>
  <symbol fill="none" xmlns="http://www.w3.org/2000/svg" viewBox="0 0 24 24" id="road">
    <g clip-path="url(#clip0_40986_205)">
      <path d="M5.25 4.5C2.355 4.5 0 6.855 0 9.75C0 12.444 4.212 17.2155 4.692 17.751C4.8345 17.9085 5.037 18 5.25 18C5.463 18 5.6655 17.9085 5.808 17.751C6.288 17.2155 10.5 12.444 10.5 9.75C10.5 6.855 8.145 4.5 5.25 4.5ZM5.25 16.1055C3.612 14.163 1.5 11.181 1.5 9.75C1.5 7.683 3.183 6 5.25 6C7.317 6 9 7.683 9 9.75C9 11.1795 6.888 14.163 5.25 16.1055Z" fill="black"></path>
      <path d="M5.25 7.5C4.0095 7.5 3 8.5095 3 9.75C3 10.9905 4.0095 12 5.25 12C6.4905 12 7.5 10.9905 7.5 9.75C7.5 8.5095 6.4905 7.5 5.25 7.5ZM5.25 10.5C4.836 10.5 4.5 10.164 4.5 9.75C4.5 9.336 4.836 9 5.25 9C5.664 9 6 9.336 6 9.75C6 10.164 5.664 10.5 5.25 10.5Z" fill="black"></path>
      <path d="M23.25 0H17.25C16.836 0 16.5 0.336 16.5 0.75V5.25V8.25C16.5 8.664 16.836 9 17.25 9C17.664 9 18 8.664 18 8.25V6H23.25C23.664 6 24 5.664 24 5.25V0.75C24 0.336 23.664 0 23.25 0ZM22.5 4.5H18V1.5H22.5V4.5Z" fill="black"></path>
      <path d="M21 16.5H13.5C12.6735 16.5 12 15.8265 12 15C12 14.1735 12.6735 13.5 13.5 13.5H15.138C15.4485 14.3715 16.2735 15 17.25 15C18.4905 15 19.5 13.9905 19.5 12.75C19.5 11.5095 18.4905 10.5 17.25 10.5C16.2735 10.5 15.4485 11.1285 15.138 12H13.5C11.8455 12 10.5 13.3455 10.5 15C10.5 16.6545 11.8455 18 13.5 18H21C21.8265 18 22.5 18.6735 22.5 19.5C22.5 20.3265 21.8265 21 21 21H7.362C7.0515 20.1285 6.2265 19.5 5.25 19.5C4.0095 19.5 3 20.5095 3 21.75C3 22.9905 4.0095 24 5.25 24C6.2265 24 7.0515 23.3715 7.362 22.5H21C22.6545 22.5 24 21.1545 24 19.5C24 17.8455 22.6545 16.5 21 16.5ZM17.25 12C17.664 12 18 12.336 18 12.75C18 13.164 17.664 13.5 17.25 13.5C16.836 13.5 16.5 13.164 16.5 12.75C16.5 12.336 16.836 12 17.25 12ZM5.25 22.5C4.836 22.5 4.5 22.164 4.5 21.75C4.5 21.336 4.836 21 5.25 21C5.664 21 6 21.336 6 21.75C6 22.164 5.664 22.5 5.25 22.5Z" fill="currentColor"></path>
    </g>
    <defs>
      <clipPath id="clip0_40986_205">
        <rect width="24" height="24" fill="white"></rect>
      </clipPath>
    </defs>
  </symbol>
    <symbol fill="none" xmlns="http://www.w3.org/2000/svg" viewBox="0 0 20 20" id="close">
    <g opacity="0.7" clip-path="url(#clip0_5_981)">
      <path d="M13.5556 10L19.3333 4.22222C20.2222 3.33333 20.2222 2 19.3333 1.22222L18.8889 0.777778C18 -0.111111 16.6667 -0.111111 15.8889 0.777778L10 6.44445L4.22222 0.666667C3.33333 -0.222222 2 -0.222222 1.11111 0.666667L0.666667 1.11111C-0.222222 2 -0.222222 3.33333 0.666667 4.11111L6.44445 10L0.666667 15.7778C-0.222222 16.6667 -0.222222 18 0.666667 18.7778L1.11111 19.3333C2 20.2222 3.33333 20.2222 4.11111 19.3333L10 13.5556L15.7778 19.3333C16.6667 20.2222 18 20.2222 18.7778 19.3333L19.2222 18.8889C20.1111 18 20.1111 16.6667 19.2222 15.8889L13.5556 10Z" fill="currentColor"></path>
    </g>
    <defs>
      <clipPath id="clip0_5_981">
        <rect width="20" height="20" fill="white"></rect>
      </clipPath>
    </defs>
  </symbol>
</svg>

