<svg id="Слой_1" data-name="Слой 1" xmlns="http://www.w3.org/2000/svg" xmlns:xlink="http://www.w3.org/1999/xlink" viewBox="0 0 30 30"><defs><style>.cls-1{fill:none;}.cls-2{clip-path:url(#clip-path);}.cls-3{clip-path:url(#clip-path-2);}.cls-4{fill:#b3b3b3;}</style><clipPath id="clip-path"/><clipPath id="clip-path-2"><rect class="cls-1" width="30" height="30"/></clipPath></defs><g class="cls-2"><g class="cls-3"><path class="cls-4" d="M17.42,29.81l-.38.06A2.5,2.5,0,0,1,17.42,29.81Z"/><path class="cls-4" d="M17.72,29.75a.57.57,0,0,1-.18,0A.57.57,0,0,0,17.72,29.75Z"/><path class="cls-4" d="M16.71,29.9l-.44,0A3.42,3.42,0,0,0,16.71,29.9Z"/><path class="cls-4" d="M17,29.87l-.21,0Z"/><path class="cls-4" d="M18.13,29.67l-.16,0Z"/><path class="cls-4" d="M19.14,29.42l-.13,0Z"/><path class="cls-4" d="M18.83,29.5l-.14,0Z"/><path class="cls-4" d="M18.43,29.61l-.14,0A.35.35,0,0,1,18.43,29.61Z"/><path class="cls-4" d="M16.26,30h0Z"/><path class="cls-4" d="M30,15A15,15,0,1,0,15,30h.26V18.32H12V14.57h3.22V11.8c0-3.2,2-5,4.82-5A25.13,25.13,0,0,1,23,7v3.35H21c-1.55,0-1.86.74-1.86,1.82v2.39h3.72l-.48,3.76H19.14v11.1A15,15,0,0,0,30,15Z"/><path class="cls-4" d="M16,30l-.47,0Z"/><path class="cls-4" d="M15.52,30h0Z"/></g></g></svg>