<svg id="Слой_1" data-name="Слой 1" xmlns="http://www.w3.org/2000/svg" xmlns:xlink="http://www.w3.org/1999/xlink" viewBox="0 0 30 30"><defs><style>.cls-1{fill:none;}.cls-2{clip-path:url(#clip-path);}</style><clipPath id="clip-path"><rect class="cls-1" width="30" height="30"/></clipPath></defs><g class="cls-2"><g class="cls-2"><path d="M17.87,15A2.87,2.87,0,1,1,15,12.13,2.86,2.86,0,0,1,17.87,15Z"/><path d="M21.71,9.92a2.81,2.81,0,0,0-1.63-1.63,4.72,4.72,0,0,0-1.6-.3c-.91,0-1.18-.06-3.48-.06s-2.57,0-3.48.06a4.72,4.72,0,0,0-1.6.3A2.81,2.81,0,0,0,8.29,9.92a4.72,4.72,0,0,0-.3,1.6c0,.91-.06,1.18-.06,3.48s0,2.57.06,3.48a4.47,4.47,0,0,0,.3,1.6,2.81,2.81,0,0,0,1.63,1.63,4.72,4.72,0,0,0,1.6.3c.91,0,1.18.06,3.48.06s2.57,0,3.48-.06a4.47,4.47,0,0,0,1.6-.3,2.79,2.79,0,0,0,1.63-1.63,4.72,4.72,0,0,0,.3-1.6c0-.91.06-1.18.06-3.48s0-2.57-.06-3.48A4.72,4.72,0,0,0,21.71,9.92ZM15,19.42A4.42,4.42,0,1,1,19.42,15,4.42,4.42,0,0,1,15,19.42Zm4.6-8a1,1,0,1,1,1-1A1,1,0,0,1,19.6,11.44Z"/><path d="M15,0A15,15,0,1,0,30,15,15,15,0,0,0,15,0Zm8.56,18.55a6.4,6.4,0,0,1-.4,2.09,4.35,4.35,0,0,1-2.52,2.52,6.29,6.29,0,0,1-2.09.4c-.92,0-1.21.05-3.55.05s-2.63,0-3.55-.05a6.4,6.4,0,0,1-2.09-.4,4.35,4.35,0,0,1-2.52-2.52,6.29,6.29,0,0,1-.4-2.09c0-.92-.05-1.21-.05-3.55s0-2.63.05-3.55a6.4,6.4,0,0,1,.4-2.09A4.35,4.35,0,0,1,9.36,6.84a6.34,6.34,0,0,1,2.09-.4c.92,0,1.21-.05,3.55-.05s2.63,0,3.55.05a6.4,6.4,0,0,1,2.09.4,4.35,4.35,0,0,1,2.52,2.52,6.34,6.34,0,0,1,.4,2.09c0,.92.05,1.21.05,3.55S23.6,17.63,23.56,18.55Z"/></g></g></svg>