<svg id="Слой_1" data-name="Слой 1" xmlns="http://www.w3.org/2000/svg" xmlns:xlink="http://www.w3.org/1999/xlink" viewBox="0 0 30 30"><defs><style>.cls-1{fill:none;}.cls-2{clip-path:url(#clip-path);}</style><clipPath id="clip-path"><rect class="cls-1" width="30" height="30"/></clipPath></defs><g class="cls-2"><g class="cls-2"><path d="M15,30A15,15,0,1,0,0,15,15,15,0,0,0,15,30ZM6.86,14.68,21.33,9.1c.67-.24,1.26.16,1,1.18L19.9,21.88c-.18.82-.67,1-1.35.63L14.8,19.75,13,21.49a1,1,0,0,1-.76.37L12.5,18l7-6.27c.31-.27-.07-.42-.47-.16L10.39,17l-3.7-1.15C5.89,15.61,5.87,15.06,6.86,14.68Z"/></g></g></svg>