<svg id="Слой_1" data-name="Слой 1" xmlns="http://www.w3.org/2000/svg" xmlns:xlink="http://www.w3.org/1999/xlink" viewBox="0 0 30 30"><defs><style>.cls-1{fill:none;}.cls-2{clip-path:url(#clip-path);}</style><clipPath id="clip-path"><rect class="cls-1" width="30" height="30"/></clipPath></defs><g class="cls-2"><g class="cls-2"><path d="M15,0A15,15,0,1,0,30,15,15,15,0,0,0,15,0Zm7.61,16.63a21.19,21.19,0,0,1,2.05,2.08,5.3,5.3,0,0,1,.74,1.08c.27.55,0,1.16-.46,1.19H21.87a2.36,2.36,0,0,1-2-.8c-.43-.43-.83-.89-1.23-1.35a2.36,2.36,0,0,0-.55-.49.63.63,0,0,0-1,.25A3.34,3.34,0,0,0,16.78,20c0,.74-.25.92-1,.95A7.75,7.75,0,0,1,11.41,20a9.58,9.58,0,0,1-2.94-2.76,37.21,37.21,0,0,1-3.9-6.93c-.24-.55-.06-.83.55-.86,1,0,2,0,3,0a.89.89,0,0,1,.83.61,19,19,0,0,0,2,3.77,3.93,3.93,0,0,0,.77.86c.37.25.61.16.8-.24a3.45,3.45,0,0,0,.18-.8,10.63,10.63,0,0,0-.06-2.76,1.18,1.18,0,0,0-1-1.1c-.31-.07-.25-.16-.13-.34a1.16,1.16,0,0,1,1-.46H16c.55.12.68.34.74.89v3.86c0,.22.09.86.49,1s.52-.15.7-.33a13,13,0,0,0,2-3c.24-.49.43-1,.64-1.47a.76.76,0,0,1,.8-.55h3.34a1.2,1.2,0,0,1,.31,0c.55.09.7.33.55.89a8.1,8.1,0,0,1-1.32,2.3c-.55.76-1.16,1.5-1.72,2.3S22,16,22.61,16.63Z"/></g></g></svg>